<?xml version="1.0" encoding="UTF-8"?><svg id="SANGRiA_Logo_Color" xmlns="http://www.w3.org/2000/svg" viewBox="0 0 1200 500"><defs><style>.cls-1{fill:#9b1c4a;}.cls-2{fill:#ec5e3b;}</style></defs><path class="cls-1" d="M230.59,162.1h-81.8c-3.04,0-5.85.8-8.41,2.39-2.56,1.6-4.57,3.74-6.02,6.44-1.45,2.7-2.18,5.57-2.18,8.62s.73,5.95,2.18,8.72c1.69,3.23,4.13,5.7,7.33,7.42,1.84.99,5.12,1.71,7.21,1.71h39.33c9,0,17.23,2.18,24.71,6.54,7.48,4.36,13.42,10.28,17.86,17.75,4.43,7.48,6.64,15.71,6.64,24.71s-2.21,17.1-6.64,24.71c-4.43,7.61-10.42,13.67-17.96,18.17-7.54,4.5-15.75,6.75-24.6,6.75h-79.31v-32.18h79.6c2.06,0,5.3-.67,7.14-1.6,3.24-1.64,5.71-4.05,7.42-7.22,1.45-2.7,2.18-5.57,2.18-8.62s-.76-6.05-2.28-8.62c-1.53-2.56-3.53-4.6-6.02-6.13-2.49-1.52-5.26-2.28-8.3-2.28h-39.24c-9,0-17.27-2.21-24.81-6.64-7.54-4.43-13.53-10.48-17.96-18.17-4.43-7.68-6.64-16.02-6.64-25.02s2.21-17.27,6.64-24.81c4.43-7.54,10.42-13.56,17.96-18.06,7.54-4.5,15.81-6.75,24.81-6.75h81.18v32.18Z"/><path class="cls-1" d="M398.55,296.01l-59.79-151.77c-3.88-9.55-10.24-14.33-19.1-14.33s-15.29,4.78-19.31,14.33l-59.8,151.77h36.54l42.47-112.08,42.65,112.08h36.33Z"/><path class="cls-1" d="M508.59,129.92v101.7l-67.06-94.43c-2.91-4.02-6.71-6.37-11.42-7.06-4.71-.69-8.86.45-12.46,3.43-3.6,2.98-5.4,7.3-5.4,12.98v149.48h32.6v-102.14l67.06,94.88c2.91,4.02,6.71,6.37,11.42,7.06,4.7.69,8.85-.45,12.46-3.43,3.6-2.97,5.4-7.3,5.4-12.98v-149.48h-32.6Z"/><path class="cls-1" d="M695.55,203.25c-3.11-3.11-7.03-4.67-11.73-4.67h-43.19v32.8h26.78v15.01c0,3.05-.73,5.85-2.18,8.41-1.45,2.56-3.46,4.6-6.02,6.13-2.56,1.52-5.37,2.28-8.41,2.28h-34.47c-3.05,0-5.81-.73-8.3-2.18-2.49-1.45-4.5-3.46-6.02-6.02-1.52-2.56-2.28-5.43-2.28-8.62v-66.85c0-3.18.76-6.05,2.28-8.62,1.52-2.56,3.53-4.57,6.02-6.02,2.49-1.45,5.26-2.18,8.3-2.18h75.78v-32.8h-75.78c-9,0-17.27,2.25-24.81,6.75-7.54,4.5-13.49,10.52-17.86,18.06-4.36,7.54-6.54,15.81-6.54,24.81v66.85c0,9,2.18,17.27,6.54,24.81,4.36,7.54,10.31,13.57,17.86,18.06,7.54,4.5,15.81,6.75,24.81,6.75h33.42c8.46,0,16.91-1.84,24.32-5.93,8.29-4.57,14.79-10.9,19.5-18.99,4.43-7.61,6.64-15.85,6.64-24.71v-31.41c0-4.7-1.56-8.62-4.67-11.73Z"/><path class="cls-1" d="M815.86,232.9c8.44,0,16.26-2.49,23.46-7.48,7.2-4.98,12.9-11.45,17.13-19.41,4.22-7.96,6.33-16.23,6.33-24.81s-2.39-17.06-7.16-25.02c-4.78-7.96-11.08-14.33-18.89-19.1-7.82-4.78-16.16-7.16-25.02-7.16h-66.44c-4.57,0-8.37,1.56-11.42,4.67-3.05,3.11-4.57,6.89-4.57,11.31v150.11h31.77v-133.91h50.24c3.32,0,6.47.9,9.45,2.7,2.97,1.8,5.36,4.19,7.16,7.16,1.8,2.98,2.7,6.13,2.7,9.45s-.8,6.3-2.39,9.34c-1.83,3.5-4.39,6.27-7.68,8.3-2.3,1.42-4.98,2.08-7.69,2.08h-31.66c-4.85,0-8.72,1.45-11.63,4.36-2.91,2.91-4.36,6.51-4.36,10.8s1.45,8.3,4.36,12.04l53.15,67.68h39.24l-48.87-63.11h2.78Z"/><rect class="cls-1" x="885.83" y="132.65" width="32.18" height="32.18"/><rect class="cls-1" x="885.83" y="185.1" width="32.18" height="110.91"/><path class="cls-1" d="M1091.96,296.01l-59.79-151.77c-3.88-9.55-10.24-14.33-19.1-14.33s-15.29,4.78-19.31,14.33l-59.8,151.77h36.54l42.47-112.08,42.65,112.08h36.33Z"/><path class="cls-2" d="M788.94,441.07c-5.42,0-10.33-3.21-12.51-8.17l-33.32-75.95c-.82-1.86-2.66-3.06-4.69-3.06H109.17v-27.32h641.52c5.42,0,10.33,3.21,12.51,8.17l25.71,58.61,25.59-58.59c2.17-4.98,7.09-8.19,12.52-8.19h272.98v27.32h-260.69c-2.03,0-3.88,1.21-4.69,3.07l-33.17,75.93c-2.17,4.97-7.08,8.18-12.5,8.18h-.01Z"/></svg>